<svg width="90" height="90" viewBox="0 0 90 90" fill="none" xmlns="http://www.w3.org/2000/svg">
<path d="M28.8113 44.7487C29.0289 44.531 29.2873 44.3584 29.5717 44.2405C29.8561 44.1227 30.1609 44.0621 30.4688 44.0621C30.7766 44.0621 31.0814 44.1227 31.3658 44.2405C31.6502 44.3584 31.9086 44.531 32.1263 44.7487L42.6562 55.2788V28.5938C42.6563 27.9721 42.9032 27.376 43.3427 26.9365C43.7823 26.4969 44.3784 26.25 45 26.25C45.6216 26.25 46.2177 26.4969 46.6573 26.9365C47.0968 27.376 47.3438 27.9721 47.3438 28.5938V55.2788L57.8737 44.7487C58.3133 44.3092 58.9096 44.0622 59.5312 44.0622C60.1529 44.0622 60.7492 44.3092 61.1887 44.7487C61.6283 45.1883 61.8753 45.7846 61.8753 46.4062C61.8753 47.0279 61.6283 47.6242 61.1887 48.0638L46.6575 62.595C46.4399 62.8127 46.1815 62.9854 45.8971 63.1032C45.6127 63.221 45.3078 63.2817 45 63.2817C44.6922 63.2817 44.3873 63.221 44.1029 63.1032C43.8185 62.9854 43.5601 62.8127 43.3425 62.595L28.8113 48.0638C28.5935 47.8461 28.4209 47.5877 28.303 47.3033C28.1852 47.0189 28.1246 46.7141 28.1246 46.4062C28.1246 46.0984 28.1852 45.7936 28.303 45.5092C28.4209 45.2248 28.5935 44.9664 28.8113 44.7487V44.7487ZM7.5 45C7.5 24.2888 24.2888 7.5 45 7.5C65.7112 7.5 82.5 24.2888 82.5 45C82.5 65.7112 65.7112 82.5 45 82.5C24.2888 82.5 7.5 65.7112 7.5 45ZM45 12.1875C26.8781 12.1875 12.1875 26.8781 12.1875 45C12.1875 63.1219 26.8781 77.8125 45 77.8125C63.1219 77.8125 77.8125 63.1219 77.8125 45C77.8125 26.8781 63.1219 12.1875 45 12.1875Z" fill="#2F88FF"/>
</svg>
