<svg width="341" height="400" viewBox="0 0 341 400" fill="none" xmlns="http://www.w3.org/2000/svg">
<path d="M199.05 51.3984L178.252 43.7484L170.602 22.95C170.149 21.73 169.333 20.6778 168.265 19.9347C167.197 19.1917 165.926 18.7934 164.625 18.7934C163.324 18.7934 162.053 19.1917 160.985 19.9347C159.917 20.6778 159.101 21.73 158.648 22.95L150.998 43.7484L130.2 51.3984C128.98 51.8513 127.928 52.6667 127.185 53.7351C126.442 54.8034 126.043 56.0736 126.043 57.375C126.043 58.6764 126.442 59.9466 127.185 61.0149C127.928 62.0833 128.98 62.8987 130.2 63.3516L150.998 71.0016L158.648 91.8C159.101 93.02 159.917 94.0722 160.985 94.8153C162.053 95.5583 163.324 95.9566 164.625 95.9566C165.926 95.9566 167.197 95.5583 168.265 94.8153C169.333 94.0722 170.149 93.02 170.602 91.8L178.252 71.0016L199.05 63.3516C200.27 62.8987 201.322 62.0833 202.065 61.0149C202.808 59.9466 203.207 58.6764 203.207 57.375C203.207 56.0736 202.808 54.8034 202.065 53.7351C201.322 52.6667 200.27 51.8513 199.05 51.3984ZM176.06 65.025C175.191 65.3414 174.402 65.8442 173.748 66.4982C173.094 67.1521 172.591 67.9412 172.275 68.8102L164.625 89.6086L156.975 68.8102C156.659 67.9412 156.156 67.1521 155.502 66.4982C154.848 65.8442 154.059 65.3414 153.19 65.025L132.391 57.375L153.19 49.725C154.059 49.4086 154.848 48.9058 155.502 48.2519C156.156 47.5979 156.659 46.8088 156.975 45.9398L164.625 25.1414L172.275 45.9398C172.591 46.8088 173.094 47.5979 173.748 48.2519C174.402 48.9058 175.191 49.4086 176.06 49.725L196.859 57.375L176.06 65.025ZM177.375 15.9375C177.375 15.0921 177.711 14.2814 178.309 13.6836C178.906 13.0858 179.717 12.75 180.563 12.75H186.938V6.375C186.938 5.52962 187.273 4.71887 187.871 4.1211C188.469 3.52332 189.28 3.1875 190.125 3.1875C190.97 3.1875 191.781 3.52332 192.379 4.1211C192.977 4.71887 193.313 5.52962 193.313 6.375V12.75H199.688C200.533 12.75 201.344 13.0858 201.941 13.6836C202.539 14.2814 202.875 15.0921 202.875 15.9375C202.875 16.7829 202.539 17.5936 201.941 18.1914C201.344 18.7892 200.533 19.125 199.688 19.125H193.313V25.5C193.313 26.3454 192.977 27.1561 192.379 27.7539C191.781 28.3517 190.97 28.6875 190.125 28.6875C189.28 28.6875 188.469 28.3517 187.871 27.7539C187.273 27.1561 186.938 26.3454 186.938 25.5V19.125H180.563C179.717 19.125 178.906 18.7892 178.309 18.1914C177.711 17.5936 177.375 16.7829 177.375 15.9375ZM218.813 35.0625C218.813 35.9079 218.477 36.7186 217.879 37.3164C217.281 37.9142 216.47 38.25 215.625 38.25H212.438V41.4375C212.438 42.2829 212.102 43.0936 211.504 43.6914C210.906 44.2892 210.095 44.625 209.25 44.625C208.405 44.625 207.594 44.2892 206.996 43.6914C206.398 43.0936 206.063 42.2829 206.063 41.4375V38.25H202.875C202.03 38.25 201.219 37.9142 200.621 37.3164C200.023 36.7186 199.688 35.9079 199.688 35.0625C199.688 34.2171 200.023 33.4064 200.621 32.8086C201.219 32.2108 202.03 31.875 202.875 31.875H206.063V28.6875C206.063 27.8421 206.398 27.0314 206.996 26.4336C207.594 25.8358 208.405 25.5 209.25 25.5C210.095 25.5 210.906 25.8358 211.504 26.4336C212.102 27.0314 212.438 27.8421 212.438 28.6875V31.875H215.625C216.47 31.875 217.281 32.2108 217.879 32.8086C218.477 33.4064 218.813 34.2171 218.813 35.0625Z" fill="white"/>
<path d="M264.744 102.296L254.418 105.28L172.493 128.596L162.508 131.601L164.511 138.922L87.5731 116.608L77.2578 113.613L74.2634 123.939L44.2874 225.834C40.6643 238.451 38.4584 253.519 42.625 268.129C45.9924 279.957 54.4534 291.317 67.6032 298.105L57.938 333.057L27.3013 324.074L21.3125 344.726L103.238 368.362L109.227 347.72L78.5898 338.727L88.2444 304.094C94.92 304.662 101.641 303.863 107.997 301.745C114.353 299.626 120.211 296.234 125.211 291.775C136.539 281.62 142.9 268.086 146.523 255.469L172.834 167.555L194.477 244.493V244.813C198.1 257.43 204.472 270.963 215.789 281.119C225.028 289.399 237.933 294.397 252.756 293.107L262.41 328.07L231.773 337.064L237.773 357.705L319.688 334.07L313.688 313.418L283.051 322.412L273.066 287.438C286.216 280.661 294.667 269.29 298.045 257.473C302.201 242.863 300.336 227.795 296.713 215.178L267.738 112.612L264.744 102.296ZM250.422 128.585L263.742 176.219H197.141L188.818 146.243L250.422 128.585ZM91.9102 140.254L153.184 157.57L144.52 186.875H77.9185L91.9102 140.254ZM203.14 197.531H269.742L276.402 221.177C279.268 231.088 280.27 242.863 277.734 251.814C275.187 260.765 270.36 267.053 257.412 270.793C244.465 274.544 237.016 271.667 230.111 265.465C223.195 259.263 217.665 248.735 214.787 238.824L203.14 197.531ZM71.5993 208.188H138.201L126.213 249.48H125.882C123.005 259.391 117.805 269.919 110.889 276.121C103.984 282.323 96.535 285.2 83.5876 281.449C70.6403 277.698 65.813 271.422 63.2662 262.47C60.73 253.519 61.7317 241.733 64.5982 231.834L71.5993 208.188Z" fill="white"/>
</svg>
