<svg width="769" height="807" viewBox="0 0 769 807" fill="none" xmlns="http://www.w3.org/2000/svg">
<g style="mix-blend-mode:screen" opacity="0.5">
<path d="M384.671 387.675C364.769 387.675 348.623 404.603 348.623 425.503C350.336 539.382 336.397 649.162 307.019 758.943C302.918 774.263 310.248 807 341.744 807C357.485 807 371.949 796.093 376.425 779.386C396.746 703.871 423.046 581.718 420.703 425.503C420.718 404.619 404.587 387.675 384.671 387.675V387.675ZM383.379 258.855C291.368 258.744 227.159 333.045 228.436 418.19C229.562 493.752 222.803 569.361 208.354 642.873C204.314 663.332 216.87 683.365 236.351 687.573C255.952 691.782 274.907 678.652 278.947 658.194C294.477 579.243 301.732 498.086 300.53 417.008C299.914 376.106 330.449 334.274 382.313 334.511C429.339 335.252 468.15 374.451 468.856 421.941C470.013 497.676 464.636 573.774 452.92 648.201C449.661 668.785 462.968 688.267 482.599 691.671C512.593 696.92 522.867 667.871 524.023 660.511C536.46 581.655 542.137 500.986 540.951 420.759C539.629 332.809 468.946 260.179 383.379 258.855V258.855ZM217.126 227.678C201.655 214.533 179.021 216.96 166.419 233.163C127.939 282.812 107.257 345.513 108.218 409.694C109.104 468.927 104.508 528.333 94.5349 586.304C91.0203 606.873 104.012 626.544 123.613 630.264C153.818 635.78 164.271 606.921 165.503 599.749C176.302 536.954 181.274 472.615 180.312 408.512C179.607 361.416 194.131 317.283 222.368 280.89C234.909 264.686 232.566 240.871 217.126 227.678ZM381.546 129.435C358.401 128.789 335.181 131.705 312.786 137.269C293.426 142.092 281.44 162.456 286.006 182.804C290.602 203.121 310.038 215.636 329.398 210.907C345.995 206.794 363.147 204.965 380.465 205.091C493.759 206.872 587.332 302.026 589.059 417.213C589.945 476.918 587.136 537.175 580.678 596.313C578.425 617.071 592.618 635.844 612.384 638.208C637.497 641.281 650.7 619.483 652.307 604.935C659.132 542.233 662.087 479.133 661.153 416.031C658.81 260.384 533.381 131.799 381.546 129.435V129.435ZM760.148 320.861C755.853 300.497 736.853 287.446 717.177 292.065C697.741 296.572 685.455 316.747 689.751 337.159C696.825 370.905 697.126 396.123 696.81 434.251C696.645 455.167 712.656 472.221 732.557 472.394H732.857C752.638 472.394 768.74 455.671 768.905 434.882C769.175 399.922 769.506 365.357 760.148 320.861ZM699.889 177.871C626.743 68.5003 507.051 2.03316 379.699 0.0314196C274.877 -1.29256 177.924 39.2623 105.815 114.966C36.1684 188.148 -1.36589 285.35 0.196157 388.763L0.015921 422.603C-0.569848 443.487 15.0807 460.92 34.9818 461.519C35.3273 461.55 35.7027 461.55 36.0632 461.55C55.4687 461.55 71.4947 445.316 72.0655 424.826L72.3058 387.565C71.0591 304.816 101.084 227.016 156.837 168.477C215.053 107.321 294.027 74.4267 378.648 75.7034C482.96 77.3269 581.008 131.752 640.922 221.326C652.352 238.443 674.806 242.526 691.118 230.562C707.399 218.552 711.334 194.957 699.889 177.871V177.871Z" fill="#0094FF"/>
</g>
</svg>
