<svg width="90" height="90" viewBox="0 0 90 90" fill="none" xmlns="http://www.w3.org/2000/svg">
<path fill-rule="evenodd" clip-rule="evenodd" d="M27.9938 3.9975C32.3925 3.795 33.795 3.75 45 3.75C56.205 3.75 57.6075 3.79875 62.0025 3.9975C66.3975 4.19625 69.3975 4.8975 72.0225 5.91375C74.7712 6.9525 77.265 8.57625 79.3275 10.6762C81.4275 12.735 83.0475 15.225 84.0825 17.9775C85.1025 20.6025 85.8 23.6025 86.0025 27.99C86.205 32.3962 86.25 33.7987 86.25 45C86.25 56.205 86.2012 57.6075 86.0025 62.0062C85.8037 66.3937 85.1025 69.3938 84.0825 72.0188C83.0475 74.7716 81.4248 77.2657 79.3275 79.3275C77.265 81.4275 74.7712 83.0475 72.0225 84.0825C69.3975 85.1025 66.3975 85.8 62.01 86.0025C57.6075 86.205 56.205 86.25 45 86.25C33.795 86.25 32.3925 86.2012 27.9938 86.0025C23.6063 85.8037 20.6063 85.1025 17.9813 84.0825C15.2285 83.0474 12.7343 81.4247 10.6725 79.3275C8.57392 77.2675 6.94993 74.7746 5.91375 72.0225C4.8975 69.3975 4.2 66.3975 3.9975 62.01C3.795 57.6037 3.75 56.2012 3.75 45C3.75 33.795 3.79875 32.3925 3.9975 27.9975C4.19625 23.6025 4.8975 20.6025 5.91375 17.9775C6.95146 15.2253 8.5767 12.7324 10.6762 10.6725C12.7352 8.57438 15.2268 6.95041 17.9775 5.91375C20.6025 4.8975 23.6025 4.2 27.99 3.9975H27.9938ZM61.6687 11.4225C57.3187 11.2238 56.0138 11.1825 45 11.1825C33.9862 11.1825 32.6812 11.2238 28.3312 11.4225C24.3075 11.6062 22.125 12.2775 20.67 12.8438C18.7463 13.5938 17.37 14.4825 15.9263 15.9263C14.5577 17.2577 13.5044 18.8786 12.8438 20.67C12.2775 22.125 11.6062 24.3075 11.4225 28.3312C11.2238 32.6812 11.1825 33.9862 11.1825 45C11.1825 56.0138 11.2238 57.3187 11.4225 61.6687C11.6062 65.6925 12.2775 67.875 12.8438 69.33C13.5037 71.1188 14.5575 72.7425 15.9263 74.0738C17.2575 75.4425 18.8813 76.4963 20.67 77.1562C22.125 77.7225 24.3075 78.3938 28.3312 78.5775C32.6812 78.7763 33.9825 78.8175 45 78.8175C56.0175 78.8175 57.3187 78.7763 61.6687 78.5775C65.6925 78.3938 67.875 77.7225 69.33 77.1562C71.2538 76.4062 72.63 75.5175 74.0738 74.0738C75.4425 72.7425 76.4963 71.1188 77.1562 69.33C77.7225 67.875 78.3938 65.6925 78.5775 61.6687C78.7763 57.3187 78.8175 56.0138 78.8175 45C78.8175 33.9862 78.7763 32.6812 78.5775 28.3312C78.3938 24.3075 77.7225 22.125 77.1562 20.67C76.4062 18.7463 75.5175 17.37 74.0738 15.9263C72.7422 14.5578 71.1214 13.5045 69.33 12.8438C67.875 12.2775 65.6925 11.6062 61.6687 11.4225ZM39.7313 57.7162C42.6737 58.9411 45.9502 59.1064 49.001 58.184C52.0518 57.2615 54.6877 55.3084 56.4585 52.6584C58.2294 50.0084 59.0252 46.8258 58.7102 43.6541C58.3951 40.4825 56.9888 37.5186 54.7313 35.2687C53.2921 33.8305 51.552 32.7293 49.6362 32.0443C47.7205 31.3593 45.6766 31.1076 43.6519 31.3073C41.6271 31.507 39.6718 32.1532 37.9268 33.1992C36.1817 34.2453 34.6903 35.6653 33.5599 37.3569C32.4295 39.0486 31.6882 40.9698 31.3894 42.9824C31.0907 44.9949 31.2418 47.0486 31.832 48.9957C32.4222 50.9428 33.4368 52.7348 34.8027 54.2427C36.1686 55.7506 37.8518 56.9369 39.7313 57.7162ZM30.0075 30.0075C31.9763 28.0387 34.3137 26.4769 36.8861 25.4114C39.4585 24.3458 42.2156 23.7974 45 23.7974C47.7844 23.7974 50.5415 24.3458 53.1139 25.4114C55.6863 26.4769 58.0237 28.0387 59.9925 30.0075C61.9613 31.9763 63.5231 34.3137 64.5886 36.8861C65.6542 39.4585 66.2026 42.2156 66.2026 45C66.2026 47.7844 65.6542 50.5415 64.5886 53.1139C63.5231 55.6863 61.9613 58.0237 59.9925 59.9925C56.0162 63.9688 50.6233 66.2026 45 66.2026C39.3767 66.2026 33.9838 63.9688 30.0075 59.9925C26.0312 56.0162 23.7974 50.6233 23.7974 45C23.7974 39.3767 26.0312 33.9838 30.0075 30.0075ZM70.905 26.955C71.3929 26.4948 71.7835 25.9413 72.0536 25.3274C72.3238 24.7135 72.468 24.0516 72.4778 23.381C72.4876 22.7103 72.3627 22.0446 72.1106 21.423C71.8584 20.8015 71.4841 20.2369 71.0098 19.7626C70.5356 19.2884 69.971 18.9141 69.3495 18.6619C68.728 18.4098 68.0622 18.2849 67.3915 18.2947C66.7209 18.3045 66.059 18.4487 65.4451 18.7189C64.8312 18.989 64.2777 19.3796 63.8175 19.8675C62.9224 20.8164 62.4324 22.0767 62.4514 23.381C62.4704 24.6853 62.997 25.9308 63.9193 26.8532C64.8417 27.7755 66.0872 28.3021 67.3915 28.3211C68.6958 28.3401 69.9561 27.8501 70.905 26.955Z" fill="#006DFF"/>
</svg>
