<svg width="90" height="90" viewBox="0 0 90 90" fill="none" xmlns="http://www.w3.org/2000/svg">
<path fill-rule="evenodd" clip-rule="evenodd" d="M3.75 10.6425C3.75 8.81451 4.47617 7.06137 5.76877 5.76878C7.06136 4.47618 8.8145 3.75001 10.6425 3.75001H79.35C80.2559 3.74853 81.1532 3.92575 81.9905 4.27151C82.8279 4.61727 83.5888 5.1248 84.2297 5.76502C84.8706 6.40524 85.379 7.1656 85.7256 8.00255C86.0723 8.8395 86.2505 9.7366 86.25 10.6425V79.35C86.251 80.2561 86.0733 81.1535 85.7271 81.9908C85.381 82.8282 84.8731 83.589 84.2326 84.2299C83.592 84.8708 82.8314 85.3791 81.9943 85.7257C81.1571 86.0723 80.2598 86.2505 79.3537 86.25H10.6425C9.73705 86.25 8.84047 86.0716 8.00399 85.725C7.16751 85.3784 6.40752 84.8703 5.76744 84.2299C5.12736 83.5895 4.61974 82.8292 4.27358 81.9926C3.92742 81.1559 3.74951 80.2592 3.75 79.3538V10.6425ZM36.405 35.205H47.5763V40.815C49.1888 37.59 53.3138 34.6875 59.5125 34.6875C71.3962 34.6875 74.2125 41.1113 74.2125 52.8975V74.73H62.1862V55.5825C62.1862 48.87 60.5737 45.0825 56.4787 45.0825C50.7975 45.0825 48.435 49.1663 48.435 55.5825V74.73H36.405V35.205ZM15.78 74.2163H27.81V34.6875H15.78V74.2125V74.2163ZM29.5313 21.795C29.5539 22.825 29.3706 23.8492 28.9921 24.8074C28.6137 25.7657 28.0476 26.6386 27.3271 27.3751C26.6067 28.1116 25.7464 28.6968 24.7967 29.0963C23.847 29.4958 22.8271 29.7016 21.7969 29.7016C20.7666 29.7016 19.7467 29.4958 18.797 29.0963C17.8474 28.6968 16.9871 28.1116 16.2666 27.3751C15.5462 26.6386 14.9801 25.7657 14.6016 24.8074C14.2231 23.8492 14.0398 22.825 14.0625 21.795C14.107 19.7732 14.9414 17.8492 16.3871 16.4351C17.8327 15.0209 19.7746 14.2291 21.7969 14.2291C23.8192 14.2291 25.7611 15.0209 27.2067 16.4351C28.6523 17.8492 29.4867 19.7732 29.5313 21.795Z" fill="#006DFF"/>
</svg>
