<svg width="90" height="90" viewBox="0 0 90 90" fill="none" xmlns="http://www.w3.org/2000/svg">
<path d="M88.6612 18.5137C85.5299 19.9012 82.1662 20.8387 78.6299 21.2624C82.2787 19.0791 85.0085 15.6429 86.3099 11.5949C82.8818 13.6311 79.13 15.0644 75.2174 15.8324C72.5863 13.0232 69.1014 11.1611 65.3036 10.5354C61.5059 9.90975 57.6078 10.5554 54.2146 12.3721C50.8213 14.1889 48.1228 17.075 46.538 20.5826C44.9532 24.0901 44.5707 28.0227 45.4499 31.7699C38.5037 31.4212 31.7085 29.6157 25.5053 26.4708C19.302 23.3259 13.8293 18.9118 9.44242 13.5149C7.94242 16.1024 7.07992 19.1024 7.07992 22.2974C7.07825 25.1737 7.78654 28.0058 9.14197 30.5427C10.4974 33.0795 12.458 35.2426 14.8499 36.8399C12.076 36.7517 9.3632 36.0021 6.93742 34.6537V34.8787C6.93714 38.9127 8.33254 42.8226 10.8869 45.9449C13.4412 49.0672 16.9971 51.2097 20.9512 52.0087C18.3779 52.7051 15.6799 52.8077 13.0612 52.3087C14.1768 55.7797 16.3499 58.815 19.2763 60.9896C22.2027 63.1643 25.7359 64.3693 29.3812 64.4362C23.193 69.294 15.5507 71.929 7.68367 71.9174C6.2901 71.9178 4.89771 71.8364 3.51367 71.6737C11.4992 76.8081 20.7949 79.533 30.2887 79.5224C62.4262 79.5224 79.9949 52.9049 79.9949 29.8199C79.9949 29.0699 79.9762 28.3124 79.9424 27.5624C83.3598 25.0911 86.3096 22.0308 88.6537 18.5249L88.6612 18.5137Z" fill="#006DFF"/>
</svg>
