<svg width="90" height="90" viewBox="0 0 90 90" fill="none" xmlns="http://www.w3.org/2000/svg">
<g clip-path="url(#clip0_22_445)">
<path d="M88.1249 24.4013C87.6153 22.5834 86.6226 20.9376 85.2524 19.6388C83.8434 18.3001 82.1166 17.3424 80.2349 16.8563C73.1924 15 44.9774 15 44.9774 15C33.2149 14.8662 21.4552 15.4548 9.76487 16.7625C7.88309 17.2846 6.15949 18.2636 4.74737 19.6125C3.35987 20.9475 2.35487 22.5938 1.82987 24.3975C0.568722 31.1916 -0.0440319 38.0901 -0.000126969 45C-0.045127 51.9038 0.566123 58.8 1.82987 65.6025C2.34362 67.3988 3.34487 69.0375 4.73612 70.3613C6.12737 71.685 7.85987 72.6413 9.76487 73.1475C16.9011 75 44.9774 75 44.9774 75C56.7549 75.1341 68.5295 74.5454 80.2349 73.2375C82.1166 72.7514 83.8434 71.7938 85.2524 70.455C86.6221 69.1565 87.6136 67.5105 88.1211 65.6925C89.4152 58.9011 90.0444 51.9998 89.9999 45.0863C90.0972 38.1436 89.4688 31.2097 88.1249 24.3975V24.4013ZM36.0074 57.84V32.1638L59.4824 45.0038L36.0074 57.84Z" fill="#006DFF"/>
</g>
<defs>
<clipPath id="clip0_22_445">
<rect width="90" height="90" fill="white"/>
</clipPath>
</defs>
</svg>
